# xmcd CD database file
#
# Track frame offsets:
#	150
#	25281
#	41398
#	68032
#	92652
#	115079
#	136229
#	155833
#	173272
#	185935
#	207906
#
# Disc length: 3020 seconds
#
# Revision: 0
# Processed by: cddbd v1.5.1PL0 Copyright (c) Steve Scherf et al.
# Submitted via: CDex 1.51
#
DISCID=900bca0b
DTITLE=aiko - 小さな丸い好日
DYEAR=1900
DGENRE=JPop
TTITLE0=オレンジな満月
TTITLE1=ジェット
TTITLE2=私生活
TTITLE3=歌姫
TTITLE4=赤い靴
TTITLE5=イジワルな天使よ　世界を笑え！
TTITLE6=恋堕ちる時
TTITLE7=夏にマフラー
TTITLE8=ボブ
TTITLE9=ナキ・ムシ
TTITLE10=あした
EXTD=
EXTT0=
EXTT1=
EXTT2=
EXTT3=
EXTT4=
EXTT5=
EXTT6=
EXTT7=
EXTT8=
EXTT9=
EXTT10=
PLAYORDER=
